<?xml version="1.0" encoding="UTF-8"?>
<svg id="Layer_1" data-name="Layer 1" xmlns="http://www.w3.org/2000/svg" viewBox="0 0 156.21 17.14">
  <defs>
    <style>
      .cls-1 {
        fill: #4f2683;
        stroke-width: 0px;
      }
    </style>
  </defs>
  <rect class="cls-1" x="81.12" y="4.92" width=".52" height="4.02"/>
  <path class="cls-1" d="m84.47,7.28v1.66h.53v-1.72c0-.99-.62-1.23-1.02-1.23-.48,0-.81.27-.95.54h-.01l-.03-.48h-.46c.02.24.02.48.02.78v2.11h.53v-1.74c0-.09.01-.18.04-.24.09-.29.36-.54.7-.54.5,0,.67.39.67.85Z"/>
  <path class="cls-1" d="m87.53,8.14c0-.43-.26-.68-.76-.87-.38-.14-.55-.25-.55-.49,0-.21.17-.39.48-.39.27,0,.48.1.59.17l.13-.38c-.16-.1-.42-.18-.71-.18-.62,0-1,.38-1,.85,0,.35.24.63.76.82.39.14.54.28.54.53s-.18.43-.56.43c-.26,0-.54-.11-.69-.21l-.13.4c.2.12.5.2.81.2.69,0,1.08-.36,1.08-.87Z"/>
  <path class="cls-1" d="m88.33,8.03c0,.34.05.6.2.75.12.14.32.22.57.22.2,0,.36-.03.47-.07l-.02-.39c-.07.02-.17.04-.3.04-.29,0-.39-.2-.39-.56v-1.56h.75v-.4h-.75v-.83l-.51.14v.69h-.45v.4h.45v1.58Z"/>
  <path class="cls-1" d="m90.45,4.92c-.19,0-.33.14-.33.33s.13.32.32.32c.21,0,.34-.14.33-.32,0-.18-.13-.33-.32-.33Z"/>
  <rect class="cls-1" x="90.19" y="6.06" width=".53" height="2.89"/>
  <path class="cls-1" d="m91.7,8.03c0,.34.05.6.2.75.12.14.32.22.57.22.2,0,.36-.03.47-.07l-.02-.39c-.07.02-.17.04-.3.04-.29,0-.39-.2-.39-.56v-1.56h.75v-.4h-.75v-.83l-.51.14v.69h-.45v.4h.45v1.58Z"/>
  <path class="cls-1" d="m95.5,8.47l.03.47h.47c-.02-.23-.02-.49-.02-.79v-2.1h-.52v1.77c0,.1-.02.19-.05.27-.1.23-.34.48-.69.48-.48,0-.64-.37-.64-.92v-1.6h-.52v1.69c0,1.01.54,1.26,1,1.26.51,0,.82-.3.95-.54h.01Z"/>
  <path class="cls-1" d="m97.48,5.23l-.51.14v.69h-.45v.4h.45v1.58c0,.34.05.6.2.75.12.14.32.22.57.22.2,0,.36-.03.47-.07l-.02-.39c-.07.02-.17.04-.3.04-.29,0-.39-.2-.39-.56v-1.56h.75v-.4h-.75v-.83Z"/>
  <path class="cls-1" d="m100.03,9c.46,0,.78-.1.96-.18l-.09-.38c-.2.08-.42.15-.8.15-.52,0-.98-.29-.99-1h2.03c0-.05.02-.14.02-.24,0-.53-.25-1.36-1.19-1.36-.84,0-1.35.69-1.35,1.56s.53,1.46,1.42,1.46Zm-.11-2.64c.59,0,.73.52.73.85h-1.53c.04-.36.27-.85.81-.85Z"/>
  <path class="cls-1" d="m104.21,5.07c.15,0,.26.03.33.07l.07-.41c-.1-.04-.26-.08-.45-.08-.24,0-.51.08-.7.27-.24.23-.33.6-.33,1.01v.14h-.41v.4h.41v2.49h.52v-2.49h.7v-.4h-.7v-.16c0-.44.11-.83.56-.83Z"/>
  <path class="cls-1" d="m106.04,5.99c-.8,0-1.43.57-1.43,1.53,0,.91.6,1.49,1.38,1.49.7,0,1.44-.47,1.44-1.53,0-.88-.56-1.49-1.39-1.49Zm-.02,2.62c-.51,0-.88-.48-.88-1.11,0-.55.27-1.12.89-1.12s.87.62.87,1.11c0,.65-.38,1.12-.88,1.12Z"/>
  <path class="cls-1" d="m108.1,8.94h.52v-1.54c0-.09.01-.17.02-.24.07-.39.33-.67.7-.67.07,0,.12,0,.18.02v-.5s-.09-.02-.15-.02c-.35,0-.67.24-.8.63h-.02l-.02-.57h-.46c.02.27.02.56.02.9v1.99Z"/>
  <path class="cls-1" d="m114.05,8.4c.38-.37.58-.91.58-1.56s-.21-1.12-.57-1.44c-.35-.33-.88-.5-1.63-.5-.41,0-.79.04-1.1.08v3.96c.26.03.57.05.94.05.78,0,1.4-.2,1.78-.58Zm-2.2-3.04c.14-.03.34-.05.61-.05,1.1,0,1.63.6,1.63,1.55,0,1.09-.6,1.71-1.71,1.71-.2,0-.39,0-.52-.03v-3.17Z"/>
  <rect class="cls-1" x="115.29" y="6.06" width=".53" height="2.89"/>
  <path class="cls-1" d="m115.54,5.57c.21,0,.34-.14.33-.32,0-.18-.13-.33-.32-.33s-.33.14-.33.33.13.32.32.32Z"/>
  <path class="cls-1" d="m119.15,8.53v-1.68c0-.35.01-.58.02-.79h-.46l-.02.44h-.01c-.13-.24-.4-.5-.9-.5-.66,0-1.3.55-1.3,1.53,0,.8.51,1.41,1.23,1.41.45,0,.76-.21.92-.48h.01v.32c0,.73-.39,1.01-.93,1.01-.36,0-.66-.11-.85-.23l-.13.4c.23.16.61.24.96.24.36,0,.77-.08,1.05-.35.28-.25.41-.66.41-1.32Zm-.52-.81c0,.09-.01.19-.04.28-.11.33-.41.54-.73.54-.57,0-.85-.47-.85-1.04,0-.67.36-1.09.86-1.09.38,0,.64.25.73.55.02.07.03.15.03.24v.52Z"/>
  <path class="cls-1" d="m120.27,5.57c.21,0,.34-.14.33-.32,0-.18-.13-.33-.32-.33s-.33.14-.33.33.13.32.32.32Z"/>
  <rect class="cls-1" x="120.02" y="6.06" width=".53" height="2.89"/>
  <path class="cls-1" d="m122.77,8.93l-.02-.39c-.07.02-.17.04-.3.04-.29,0-.39-.2-.39-.56v-1.56h.75v-.4h-.75v-.83l-.51.14v.69h-.45v.4h.45v1.58c0,.34.05.6.2.75.12.14.32.22.57.22.2,0,.36-.03.47-.07Z"/>
  <path class="cls-1" d="m125.42,8.25v-1.08c0-.58-.21-1.18-1.1-1.18-.36,0-.71.1-.95.26l.12.35c.2-.13.48-.21.75-.21.59,0,.66.43.66.67v.06c-1.12,0-1.74.38-1.74,1.07,0,.42.3.83.88.83.41,0,.72-.2.88-.43h.02l.04.36h.48c-.04-.2-.05-.44-.05-.69Zm-.51-.28c0,.05-.01.11-.03.17-.08.24-.32.48-.7.48-.27,0-.5-.16-.5-.5,0-.56.65-.66,1.22-.65v.5Z"/>
  <rect class="cls-1" x="126.27" y="4.71" width=".53" height="4.24"/>
  <path class="cls-1" d="m130.03,4.92l-1.37,4.02h.54l.42-1.26h1.43l.43,1.26h.55l-1.37-4.02h-.63Zm-.3,2.35l.39-1.16c.08-.24.14-.49.2-.73h.01c.06.23.12.47.21.73l.39,1.16h-1.21Z"/>
  <path class="cls-1" d="m134.6,6.49h-.01c-.13-.24-.4-.5-.9-.5-.66,0-1.3.55-1.3,1.53,0,.8.51,1.41,1.23,1.41.45,0,.76-.21.92-.48h.01v.32c0,.73-.39,1.01-.93,1.01-.36,0-.66-.11-.85-.23l-.13.4c.23.16.61.24.96.24.36,0,.77-.08,1.05-.35.28-.25.41-.66.41-1.32v-1.68c0-.35.01-.58.02-.79h-.46l-.02.44Zm-.06,1.22c0,.09-.01.19-.04.28-.11.33-.41.54-.73.54-.57,0-.85-.47-.85-1.04,0-.67.36-1.09.86-1.09.38,0,.64.25.73.55.02.07.03.15.03.24v.52Z"/>
  <path class="cls-1" d="m135.94,8.94h.52v-1.54c0-.09.01-.17.02-.24.07-.39.33-.67.7-.67.07,0,.12,0,.18.02v-.5s-.09-.02-.15-.02c-.35,0-.67.24-.8.63h-.02l-.02-.57h-.46c.02.27.02.56.02.9v1.99Z"/>
  <path class="cls-1" d="m138.14,5.57c.21,0,.34-.14.33-.32,0-.18-.13-.33-.32-.33s-.33.14-.33.33.13.32.32.32Z"/>
  <rect class="cls-1" x="137.89" y="6.06" width=".53" height="2.89"/>
  <path class="cls-1" d="m140.63,6.41c.29,0,.48.07.61.14l.12-.41c-.14-.07-.42-.15-.73-.15-.94,0-1.55.64-1.55,1.53s.57,1.47,1.44,1.47c.39,0,.69-.1.83-.17l-.09-.39c-.15.07-.35.14-.64.14-.57,0-1-.41-1-1.08,0-.6.36-1.09,1.02-1.09Z"/>
  <path class="cls-1" d="m144.38,6.06h-.52v1.77c0,.1-.02.19-.05.27-.1.23-.34.48-.69.48-.48,0-.64-.37-.64-.92v-1.6h-.52v1.69c0,1.01.54,1.26,1,1.26.51,0,.82-.3.95-.54h.01l.03.47h.47c-.02-.23-.02-.49-.02-.79v-2.1Z"/>
  <rect class="cls-1" x="145.25" y="4.71" width=".53" height="4.24"/>
  <path class="cls-1" d="m147.29,5.23l-.51.14v.69h-.45v.4h.45v1.58c0,.34.05.6.2.75.12.14.32.22.57.22.2,0,.36-.03.47-.07l-.02-.39c-.07.02-.17.04-.3.04-.29,0-.39-.2-.39-.56v-1.56h.75v-.4h-.75v-.83Z"/>
  <path class="cls-1" d="m151.05,6.06h-.52v1.77c0,.1-.02.19-.05.27-.1.23-.34.48-.69.48-.48,0-.64-.37-.64-.92v-1.6h-.52v1.69c0,1.01.54,1.26,1,1.26.51,0,.82-.3.95-.54h.01l.03.47h.47c-.02-.23-.02-.49-.02-.79v-2.1Z"/>
  <path class="cls-1" d="m152.4,6.62h-.02l-.02-.57h-.46c.02.27.02.56.02.9v1.99h.52v-1.54c0-.09.01-.17.02-.24.07-.39.33-.67.7-.67.07,0,.12,0,.18.02v-.5s-.09-.02-.15-.02c-.35,0-.67.24-.8.63Z"/>
  <path class="cls-1" d="m156.21,7.35c0-.53-.25-1.36-1.19-1.36-.84,0-1.35.69-1.35,1.56s.53,1.46,1.42,1.46c.46,0,.78-.1.96-.18l-.09-.38c-.2.08-.42.15-.8.15-.52,0-.98-.29-.99-1h2.03c0-.05.02-.14.02-.24Zm-2.04-.13c.04-.36.27-.85.81-.85.59,0,.73.52.73.85h-1.53Z"/>
  <path class="cls-1" d="m83.14,12.97c0-.58-.21-1.18-1.1-1.18-.36,0-.71.1-.95.26l.12.35c.2-.13.48-.21.75-.21.59,0,.66.43.66.67v.06c-1.12,0-1.74.38-1.74,1.07,0,.42.3.83.88.83.41,0,.72-.2.88-.43h.02l.04.36h.48c-.04-.2-.05-.44-.05-.69v-1.08Zm-.51.8c0,.05-.01.11-.03.17-.08.24-.32.48-.7.48-.27,0-.5-.16-.5-.5,0-.56.65-.66,1.22-.65v.5Z"/>
  <path class="cls-1" d="m85.42,11.79c-.48,0-.81.27-.95.54h-.01l-.03-.48h-.46c.02.24.02.48.02.78v2.11h.53v-1.74c0-.09.01-.18.04-.24.09-.29.36-.54.7-.54.5,0,.67.39.67.85v1.66h.53v-1.72c0-.99-.62-1.23-1.02-1.23Z"/>
  <path class="cls-1" d="m89.79,10.51h-.53v1.72h-.01c-.13-.23-.43-.44-.87-.44-.7,0-1.3.59-1.29,1.55,0,.88.54,1.47,1.24,1.47.47,0,.82-.24.98-.57h.01l.02.5h.47c-.02-.2-.02-.49-.02-.75v-3.49Zm-.53,3.02c0,.08,0,.15-.02.23-.1.39-.42.63-.77.63-.57,0-.85-.48-.85-1.07,0-.64.32-1.12.87-1.12.39,0,.68.27.76.61.02.07.02.16.02.22v.5Z"/>
  <path class="cls-1" d="m93.01,10.72l-1.37,4.02h.54l.42-1.26h1.43l.43,1.26h.55l-1.37-4.02h-.63Zm-.3,2.35l.39-1.16c.08-.24.14-.49.2-.73h.01c.06.23.12.47.21.73l.39,1.16h-1.21Z"/>
  <path class="cls-1" d="m98.08,10.51h-.53v1.72h-.01c-.13-.23-.43-.44-.87-.44-.7,0-1.3.59-1.29,1.55,0,.88.54,1.47,1.24,1.47.47,0,.82-.24.98-.57h.01l.02.5h.47c-.02-.2-.02-.49-.02-.75v-3.49Zm-.53,3.02c0,.08,0,.15-.02.23-.1.39-.42.63-.77.63-.57,0-.85-.48-.85-1.07,0-.64.32-1.12.87-1.12.39,0,.68.27.76.61.02.07.02.16.02.22v.5Z"/>
  <path class="cls-1" d="m100.21,13.48c-.1.26-.18.5-.24.74h-.02c-.06-.24-.14-.48-.23-.74l-.57-1.62h-.56l1.1,2.89h.5l1.13-2.89h-.55l-.56,1.62Z"/>
  <path class="cls-1" d="m103.85,12.97c0-.58-.21-1.18-1.1-1.18-.36,0-.71.1-.95.26l.12.35c.2-.13.48-.21.75-.21.59,0,.66.43.66.67v.06c-1.12,0-1.74.38-1.74,1.07,0,.42.3.83.88.83.41,0,.72-.2.88-.43h.02l.04.36h.48c-.04-.2-.05-.44-.05-.69v-1.08Zm-.51.8c0,.05-.01.11-.03.17-.08.24-.32.48-.7.48-.27,0-.5-.16-.5-.5,0-.56.65-.66,1.22-.65v.5Z"/>
  <path class="cls-1" d="m106.13,11.79c-.48,0-.81.27-.95.54h-.01l-.03-.48h-.46c.02.24.02.48.02.78v2.11h.53v-1.74c0-.09.01-.18.04-.24.09-.29.36-.54.7-.54.5,0,.67.39.67.85v1.66h.53v-1.72c0-.99-.62-1.23-1.02-1.23Z"/>
  <path class="cls-1" d="m109.35,12.21c.29,0,.48.07.61.14l.12-.41c-.14-.07-.42-.15-.73-.15-.94,0-1.55.64-1.55,1.53s.57,1.47,1.44,1.47c.39,0,.69-.1.83-.17l-.09-.39c-.15.07-.35.14-.64.14-.57,0-1-.41-1-1.08,0-.6.36-1.09,1.02-1.09Z"/>
  <path class="cls-1" d="m111.83,11.79c-.84,0-1.35.69-1.35,1.56s.53,1.46,1.42,1.46c.46,0,.78-.1.96-.18l-.09-.38c-.2.08-.42.15-.8.15-.53,0-.98-.29-.99-1h2.03c0-.05.02-.14.02-.24,0-.53-.25-1.36-1.19-1.36Zm-.85,1.23c.04-.36.27-.85.81-.85.59,0,.73.52.73.85h-1.53Z"/>
  <path class="cls-1" d="m116.17,10.51h-.53v1.72h-.01c-.13-.23-.43-.44-.87-.44-.7,0-1.3.59-1.29,1.55,0,.88.54,1.47,1.24,1.47.47,0,.82-.24.98-.57h.01l.02.5h.47c-.02-.2-.02-.49-.02-.75v-3.49Zm-.53,3.02c0,.08,0,.15-.02.23-.1.39-.42.63-.77.63-.57,0-.85-.48-.85-1.07,0-.64.32-1.12.87-1.12.39,0,.68.27.76.61.02.07.02.16.02.22v.5Z"/>
  <path class="cls-1" d="m119.39,10.72l-1.37,4.02h.54l.42-1.26h1.43l.43,1.26h.55l-1.37-4.02h-.63Zm-.3,2.35l.39-1.16c.08-.24.14-.49.2-.73h.01c.06.23.12.47.21.73l.39,1.16h-1.21Z"/>
  <path class="cls-1" d="m123.4,11.79c-.48,0-.81.27-.95.54h-.01l-.03-.48h-.46c.02.24.02.48.02.78v2.11h.53v-1.74c0-.09.01-.18.04-.24.09-.29.36-.54.7-.54.5,0,.67.39.67.85v1.66h.53v-1.72c0-.99-.62-1.23-1.02-1.23Z"/>
  <path class="cls-1" d="m127.3,12.97c0-.58-.21-1.18-1.1-1.18-.36,0-.71.1-.95.26l.12.35c.2-.13.48-.21.75-.21.59,0,.66.43.66.67v.06c-1.12,0-1.74.38-1.74,1.07,0,.42.3.83.88.83.41,0,.72-.2.88-.43h.02l.04.36h.48c-.04-.2-.05-.44-.05-.69v-1.08Zm-.51.8c0,.05-.01.11-.03.17-.08.24-.32.48-.7.48-.27,0-.5-.16-.5-.5,0-.56.65-.66,1.22-.65v.5Z"/>
  <rect class="cls-1" x="128.15" y="10.51" width=".53" height="4.24"/>
  <path class="cls-1" d="m130.76,13.55c-.07.21-.13.43-.18.6h-.01c-.05-.17-.12-.4-.18-.59l-.63-1.71h-.57l1.07,2.66c.02.07.04.11.04.14s-.02.07-.04.12c-.12.27-.3.47-.44.58-.15.13-.33.21-.46.26l.13.44c.13-.02.39-.11.64-.34.36-.31.61-.82.99-1.81l.79-2.06h-.55l-.57,1.69Z"/>
  <path class="cls-1" d="m133,11.03l-.51.14v.69h-.45v.4h.45v1.58c0,.34.05.6.2.75.12.14.32.22.57.22.2,0,.36-.03.47-.07l-.02-.39c-.07.02-.17.04-.3.04-.29,0-.39-.2-.39-.56v-1.56h.75v-.4h-.75v-.83Z"/>
  <path class="cls-1" d="m134.61,10.72c-.19,0-.33.14-.33.33s.13.32.32.32c.21,0,.34-.14.33-.32,0-.18-.13-.33-.32-.33Z"/>
  <rect class="cls-1" x="134.34" y="11.86" width=".53" height="2.89"/>
  <path class="cls-1" d="m137.08,12.21c.29,0,.48.07.61.14l.12-.41c-.14-.07-.42-.15-.73-.15-.94,0-1.55.64-1.55,1.53s.57,1.47,1.44,1.47c.39,0,.69-.1.83-.17l-.09-.39c-.15.07-.35.14-.64.14-.57,0-1-.41-1-1.08,0-.6.36-1.09,1.02-1.09Z"/>
  <path class="cls-1" d="m139.35,13.07c-.38-.14-.55-.25-.55-.49,0-.21.17-.39.48-.39.27,0,.48.1.59.17l.13-.38c-.16-.1-.42-.18-.71-.18-.62,0-1,.38-1,.85,0,.35.24.63.76.82.39.14.54.28.54.53s-.18.43-.56.43c-.26,0-.54-.11-.69-.21l-.13.4c.2.12.5.2.81.2.69,0,1.08-.36,1.08-.87,0-.43-.26-.68-.76-.87Z"/>
  <rect class="cls-1" x="76.29" y="2.57" width=".21" height="14.16"/>
  <rect class="cls-1" x="0" y="10.41" width="71.55" height=".41"/>
  <path class="cls-1" d="m47.28,7.62c-.14.08-.31.14-.5.18-.21.04-.44.06-.7.06-.28,0-.57-.06-.86-.19-.3-.13-.58-.31-.83-.52-.26-.22-.49-.47-.68-.75-.19-.27-.33-.55-.41-.83l-.04-.13h-.64l.57,3.24.23-.11s.04-.02.1-.04c.06-.02.11-.03.17-.05.06-.02.11-.03.17-.04.05-.01.08-.01.08-.01.19,0,.38.02.58.05.2.04.4.08.59.12.21.05.41.09.61.12.21.04.43.06.64.06.45,0,.87-.06,1.25-.17.38-.12.7-.28.97-.49.27-.21.49-.48.64-.79.15-.31.22-.65.22-1.03,0-.53-.13-.98-.38-1.35-.24-.35-.55-.65-.92-.91-.36-.24-.75-.46-1.16-.63-.4-.17-.78-.34-1.12-.5-.33-.16-.61-.33-.83-.53-.19-.17-.28-.36-.28-.6,0-.32.1-.55.31-.71.22-.16.5-.25.82-.25.27,0,.53.05.79.16.26.11.51.25.74.43.22.18.43.4.6.64.17.24.29.5.37.78l.04.14h.6l-.05-2.6h-.63c-.14,0-.29-.02-.46-.05-.18-.04-.37-.08-.57-.13-.21-.05-.43-.09-.66-.13-.23-.04-.48-.06-.73-.06-.98,0-1.72.19-2.22.55-.51.38-.77.99-.77,1.81,0,.48.13.89.39,1.22.25.32.56.59.93.82.36.22.75.42,1.17.6.4.17.78.34,1.13.52.34.17.62.37.84.58.2.19.29.41.29.7,0,.21-.04.38-.1.51-.07.13-.17.23-.29.3Z"/>
  <path class="cls-1" d="m4.26,7.92s-.07,0-.11,0h-.07c-.11-.01-.19-.02-.25-.03h0c-.13-.02-.29-.06-.42-.15-.05-.03-.1-.07-.13-.1-.02-.02-.03-.04-.04-.05,0,0,0,0,0,0h0s0,0,0,0c0-.01-.02-.03-.02-.05-.02-.05-.04-.11-.05-.17-.01-.08-.02-.16-.03-.26-.01-.2,0-.39,0-.39v-1.74h.02s.58-.45.58-.45c.23.31.52.71.8,1.12.09.12.17.25.26.38.17.26.34.5.48.72.13.2.24.38.33.53.07.12.22.34.1.48-.13.16-.69.22-.82.22,0,0,0,0,0,0v.63h4.24v-.55c-.68-.09-1.02-.56-1.38-1.06-.07-.09-.14-.18-.21-.28l-.67-.96s0,0,0,0l-1.67-2.39h0c.07-.06.13-.11.2-.16.21-.18.41-.36.6-.54.18-.17.35-.33.51-.46.02-.01.04-.03.06-.05.15-.13.43-.36.93-.7l.07-.05c.26-.17.46-.31.74-.4.02,0,.04-.01.07-.02h.02s.02-.01.03-.02c.03-.01.11-.02.27-.04v-.09s0-.65,0-.65h-3.75v.75h.05s.1.01.2.03c0,0,.01,0,.02,0h.05s.03.02.05.03c0,0,.01,0,.02,0,0,0,.01,0,.02,0,.02,0,.04.02.07.03h.01s.06.04.09.05h0s.01.01.01.01c.02.02.09.07,0,.27-.01.04-.05.11-.12.21-.07.09-.15.19-.24.31-.19.23-.4.45-.58.62l-.06.06c-.06.06-.12.12-.19.18-.24.22-.46.42-.66.61-.18.17-.35.32-.51.45-.01,0-.02.02-.03.02v-1.9c0-.18,0-.54.24-.8.24-.27.62-.29.8-.29h.11V.16H0v.68h.22c.27,0,.51.12.67.3,0,0,0,0,0,0,.01.01.02.03.04.04,0,0,0,0,0,.01,0,.01.02.03.03.04.08.12.13.27.15.42,0,.02,0,.05,0,.07,0,.27,0,.59,0,.85s0,2.68,0,3.05c0,.34.02,1.3-.01,1.61,0,0,0,0,0,.01,0,.03,0,.05,0,.06h0s-.02.08-.04.12c-.06.18-.21.32-.36.4-.03.02-.08.03-.13.04,0,0,0,0,0,0-.07.02-.16.03-.26.04-.06,0-.11,0-.14,0h-.07c-.07,0-.11,0-.11,0v.66h4.26v-.66Z"/>
  <path class="cls-1" d="m11.69,7.99s-.26,0-.5-.16c-.18-.11-.05-.38-.04-.42,0,0,0-.01,0-.02l.3-.83h1.68l.21.59v.02s.06.13.1.25c0,.02.01.03.02.05,0,0,0,0,0,0,0,.02.01.05.02.07.02.08.02.12.02.15s0,.04-.01.07c0,.01-.01.02-.02.03-.04.05-.11.09-.2.12-.01,0-.03,0-.05.01-.2.05-.43.05-.43.05v.61h3.05s0-.62,0-.62h-.05c-.14,0-.29-.03-.43-.1-.12-.06-.2-.15-.25-.28l-1.91-5.18-1.44.42.21.55-1.55,3.62s-.09.26-.22.5c0,0,0,.01,0,.02-.02.05-.05.09-.08.13-.03.06-.07.11-.11.15-.03.04-.07.07-.1.08,0,0-.01,0-.02,0-.07.04-.14.07-.22.09-.03,0-.07.01-.1.01h-.08v.6h2.21v-.59Zm.63-3.74l.56,1.59h-1.15l.58-1.59Z"/>
  <path class="cls-1" d="m28.11,8.58h2.21v-.59s-.27,0-.5-.16c-.18-.11-.05-.38-.04-.42,0,0,0-.01,0-.02l.3-.83h1.68l.21.59v.02s.06.13.1.25c0,.02.01.03.02.05,0,0,0,0,0,0,0,.02.01.05.02.07.02.08.02.12.02.15s0,.04-.01.07c0,.01-.01.02-.02.03-.04.05-.11.09-.2.12-.01,0-.03,0-.05.01-.2.05-.43.05-.43.05v.61h3.05s0-.62,0-.62h-.05c-.14,0-.29-.03-.43-.1-.12-.06-.2-.15-.25-.28l-1.91-5.18-1.44.42.21.55-1.55,3.62s-.09.26-.22.5c0,0,0,.01,0,.02-.02.05-.05.09-.08.13-.03.06-.07.11-.12.15-.03.04-.07.07-.1.08,0,0-.01,0-.02,0-.07.04-.14.07-.22.09-.03,0-.07.01-.1.01h-.08v.6Zm2.84-4.34l.56,1.59h-1.15l.58-1.59Z"/>
  <path class="cls-1" d="m18.95,7.99s-.1-.02-.15-.02h-.02c-.06-.01-.1-.02-.14-.03-.08-.02-.17-.05-.25-.08-.18-.08-.3-.12-.34-.47,0-.02,0-.03,0-.05,0-.02,0-.04,0-.06,0-.02,0-.04,0-.06,0,0,0-.02,0-.02,0-.02,0-.03,0-.05,0-.01,0-.02,0-.03,0-.02,0-.03,0-.05,0-.01,0-.02,0-.03,0-.02,0-.04,0-.06v-.03s0-.05,0-.07v-.02s0-.06,0-.09h0c0-.07,0-.15,0-.22,0-.85,0-2.05,0-2.12h0s0,0,0,0c0,0,.01.02.02.02.67.79,1.68,2.09,1.68,2.09.59.74,1.2,1.51,1.66,2.08l.03.04h.81v-4.06c0-.14,0-.27,0-.39,0-.07,0-.13,0-.18,0,0,0,0,0-.01,0,0,0,0,0-.01h0c0-.06,0-.1.01-.14,0-.06.01-.1.02-.14,0-.02,0-.04.01-.07,0-.03.01-.05.02-.08,0,0,0,0,0,0,0,0,0,0,0,0,.05-.15.18-.27.34-.31,0,0,0,0,0,0s0,0,0,0c.01,0,.03,0,.04,0,.01,0,.02,0,.03,0,0,0,0,0,0,0h0s.02,0,.03,0c.1,0,.21-.01.25-.01v-.61h-2.45v.59c.19.03.54.08.66.2.12.13.16.33.22.94h0c.02.29.04.65.05.98,0,.02,0,.04,0,.07,0,.29.01.58.01.85v.09h0c-.41-.51-1.15-1.4-1.83-2.21-.52-.62-.96-1.16-1.18-1.42l-.07-.08h-2.17s0,.57,0,.57c.5.12.77.28,1.01.47,0,0,0,.56,0,.88v.32c0,.44-.02,1.26-.02,1.74,0,.03,0,.06,0,.08,0,.05,0,.1,0,.14h0v.04c0,.07,0,.14,0,.2,0,.15,0,.27-.03.38t0,0h0s0,.05-.01.07c0,0,0,.01,0,.02-.03.1-.08.19-.16.25-.21.17-.56.18-.78.21v.59h2.7s0-.59,0-.59Z"/>
  <path class="cls-1" d="m26.5,7.77c-.09.05-.2.09-.33.11-.14.03-.3.04-.47.04-.18,0-.38-.04-.57-.13-.2-.09-.39-.21-.56-.35-.18-.15-.33-.32-.46-.51-.13-.18-.22-.37-.28-.56l-.04-.15h-.59l.43,2.45.25-.13s.02,0,.06-.02c.04-.01.08-.02.12-.03.04-.01.08-.02.11-.03.03,0,.04,0,.04,0,.13,0,.26.01.39.03.14.02.28.05.41.08.14.03.28.06.43.09.15.03.31.04.46.04.32,0,.62-.04.89-.12.27-.08.51-.2.7-.36.2-.16.35-.35.46-.58.11-.23.17-.48.17-.75,0-.39-.09-.72-.28-.98-.17-.25-.4-.47-.66-.65-.25-.17-.53-.32-.82-.45-.28-.12-.54-.23-.77-.35-.23-.11-.41-.23-.56-.35-.12-.1-.17-.22-.17-.36,0-.2.06-.34.18-.43.14-.11.32-.16.52-.16.18,0,.35.03.53.1.18.07.34.17.49.29.15.12.29.27.4.43.11.16.2.33.24.52l.04.15h.55l-.04-1.97h-.52c-.09,0-.2-.01-.31-.03-.12-.03-.25-.05-.39-.09-.15-.03-.3-.07-.47-.09-.17-.03-.34-.04-.52-.04-.7,0-1.23.14-1.59.4-.38.28-.57.73-.57,1.32,0,.35.1.65.29.9.18.23.4.43.67.59.25.16.53.3.83.42.28.12.54.24.78.36.23.12.42.25.57.39.12.12.18.25.18.43,0,.13-.02.24-.06.32-.04.08-.1.14-.18.18Z"/>
  <path class="cls-1" d="m37.93,7.77c-.09.05-.2.09-.33.11-.14.03-.3.04-.47.04-.18,0-.38-.04-.57-.13-.2-.09-.39-.21-.56-.35-.17-.15-.33-.32-.46-.51-.13-.18-.22-.37-.28-.56l-.04-.15h-.6l.43,2.45.25-.13s.02-.01.05-.02c.04-.01.08-.02.12-.03.04-.01.08-.02.11-.03.03,0,.04,0,.04,0,.13,0,.26.01.39.03.14.02.28.05.41.08.14.03.28.06.43.09.15.03.31.04.46.04.32,0,.62-.04.89-.12.27-.08.51-.2.7-.36.2-.16.36-.35.46-.58.11-.23.17-.48.17-.75,0-.39-.09-.72-.28-.98-.17-.25-.4-.47-.66-.65-.26-.17-.53-.33-.82-.45-.28-.12-.54-.23-.78-.35-.22-.11-.41-.23-.56-.35-.12-.1-.17-.22-.17-.36,0-.2.06-.34.18-.43.14-.11.32-.16.52-.16.17,0,.35.03.52.1.18.07.34.17.49.29.15.12.29.27.4.43.11.16.2.34.24.52l.04.15h.55l-.04-1.97h-.52c-.09,0-.2-.01-.31-.03-.12-.03-.25-.05-.39-.09-.15-.03-.3-.07-.46-.09-.17-.03-.35-.04-.52-.04-.7,0-1.23.14-1.59.4-.38.28-.57.73-.57,1.32,0,.35.1.65.29.9.18.23.4.42.67.59.25.16.53.3.83.42.28.12.54.24.78.36.23.12.42.25.57.39.12.12.18.25.18.43,0,.13-.02.24-.06.32-.04.08-.1.14-.18.18Z"/>
  <path class="cls-1" d="m61.19,4.59c.06-.29.13-.52.23-.69.09-.15.19-.27.32-.35.13-.08.28-.13.45-.16.13-.02.22-.03.38-.04v3.84c0,.18,0,.33-.02.44-.01.08-.04.14-.07.19-.03.04-.09.07-.18.09-.11.03-.27.05-.47.07l-.21.02v.57h3.41v-.57l-.21-.02c-.2-.02-.36-.04-.47-.07-.08-.02-.14-.05-.18-.09-.04-.04-.06-.11-.07-.19-.02-.11-.02-.26-.02-.44v-3.84c.16,0,.25.02.38.04.17.02.32.08.44.16.12.08.23.19.32.35.09.16.17.4.23.69l.03.17h.58l-.11-2.19h-5.3l-.11,2.19h.61l.03-.17Z"/>
  <path class="cls-1" d="m55.14,7.88c-.07.04-.14.07-.22.09-.03,0-.07.01-.1.01h-.08v.6h2.21v-.6s-.26,0-.5-.15c-.18-.11-.05-.38-.04-.42,0,0,0-.01,0-.02l.3-.83h1.68l.21.59v.02s.06.13.1.25l.02.05s0,0,0,0c0,.02.01.05.02.07.02.08.02.12.02.14s0,.05-.01.07c0,.01-.01.02-.02.03-.04.05-.11.09-.2.12-.01,0-.03,0-.05.01-.2.05-.43.05-.43.05v.61h3.05s0-.62,0-.62h-.05c-.14,0-.29-.03-.43-.1-.12-.06-.2-.15-.25-.28l-1.91-5.18-1.44.42.21.55-1.55,3.62s-.09.26-.22.5c0,0,0,.01,0,.02-.02.05-.05.09-.08.13-.03.05-.07.11-.11.15-.03.04-.07.07-.1.08,0,0-.01,0-.02,0Zm2.44-3.64l.56,1.59h-1.15l.58-1.59Z"/>
  <path class="cls-1" d="m50.36,4.59c.06-.29.13-.52.23-.69.09-.15.19-.27.32-.35.13-.08.28-.13.44-.16.13-.02.22-.03.38-.04v3.84c0,.18,0,.33-.02.44-.01.08-.04.14-.07.19-.03.04-.1.07-.18.09-.11.03-.27.05-.47.07l-.21.02v.57h3.41v-.57l-.21-.02c-.2-.02-.36-.04-.47-.07-.08-.02-.14-.05-.18-.09-.04-.04-.06-.11-.07-.19-.02-.11-.02-.26-.02-.44v-3.84c.16,0,.25.02.38.04.17.02.32.08.44.16.12.08.23.19.32.35.09.16.17.39.23.69l.03.17h.58l-.11-2.19h-5.29l-.11,2.19h.61l.03-.17Z"/>
  <path class="cls-1" d="m71.5,6.39c-.09.25-.37.85-.75,1.07-.45.26-.99.47-2.07.35v-1.95h.17c.55,0,1.01.41,1.08.95h.55v-2.51s-.56,0-.56,0c-.08.44-.43.79-.86.87-.02,0-.05.01-.11.02-.01,0-.02,0-.04,0,0,0,0,0-.01,0-.05,0-.1,0-.14,0h-.07v-1.88h.63c.16,0,.74-.02,1.13.24.44.3.58.85.62,1.08l.56-.1-.08-1.96h-5.29s0,.65,0,.65h.2c.17.01.3.03.4.07.08.03.14.07.17.11.04.05.07.12.08.2.02.11.03.24.03.38v3.22c0,.16,0,.29-.03.4-.02.08-.04.15-.08.2-.04.04-.09.08-.17.1-.1.03-.24.05-.41.06h-.2v.62h5.29s.45-1.86.45-1.86l-.49-.34h0Z"/>
  <path class="cls-1" d="m2.51,15.2c0,.23,0,.47-.19.64-.14.13-.31.15-.5.15-.07,0-.34,0-.54-.15-.16-.12-.19-.26-.19-.62v-2.52H.07v2.25c0,.5.01,1,.4,1.39.46.46,1.13.49,1.31.49.23,0,1.29-.06,1.63-1.01.1-.28.11-.57.11-.87v-2.25h-1.01v2.51Z"/>
  <polygon class="cls-1" points="10.88 15.23 9.41 12.69 8.42 12.69 8.42 16.73 9.39 16.73 9.35 14.23 10.82 16.73 11.81 16.73 11.81 12.69 10.84 12.69 10.88 15.23"/>
  <rect class="cls-1" x="16.73" y="12.69" width="1.01" height="4.04"/>
  <polygon class="cls-1" points="24.19 15.56 23.35 12.69 22.28 12.69 23.66 16.73 24.69 16.73 26.09 12.69 25.01 12.69 24.19 15.56"/>
  <polygon class="cls-1" points="31.64 14.97 33.48 14.97 33.48 14.21 31.64 14.21 31.64 13.47 33.61 13.47 33.61 12.69 30.63 12.69 30.63 16.73 33.8 16.73 33.8 15.93 31.64 15.93 31.64 14.97"/>
  <path class="cls-1" d="m41.42,14.97c.06-.04.13-.09.19-.15.14-.13.32-.37.32-.82,0-.33-.1-.57-.16-.67-.31-.58-.95-.62-1.14-.63-.11,0-.23,0-.34,0h-1.82v4.04h1.02v-1.44h.63l.81,1.44h1.11l-.93-1.61c.17-.06.25-.1.33-.14Zm-.84-.47c-.11.04-.23.04-.27.04h-.84v-1.1h.86c.18,0,.58.01.58.54,0,.1-.01.41-.34.52Z"/>
  <path class="cls-1" d="m49.05,14.36c-.22-.05-.45-.1-.68-.13-.38-.06-.6-.05-.74-.2-.03-.03-.09-.1-.09-.21,0-.19.19-.43.6-.43.17,0,.33.04.38.06.3.1.46.22.68.44l.74-.53c-.23-.2-.31-.27-.45-.36-.55-.37-1.09-.4-1.33-.4-.66,0-1.06.23-1.26.42-.2.18-.3.39-.35.65-.02.11-.02.25-.02.28,0,.17.03.3.05.35.05.15.13.25.17.3.2.24.47.35.76.42.19.05.38.08.57.1.36.05.9.06.9.43,0,.31-.4.42-.43.43-.13.04-.27.04-.32.04-.34,0-.73-.12-.99-.34-.08-.06-.16-.16-.18-.17l-.77.48c.16.19.21.25.32.34.27.22.72.49,1.52.49.14,0,.27-.01.41-.03.19-.02.92-.11,1.27-.74.15-.27.16-.52.16-.63,0-.21-.05-.36-.08-.43-.21-.49-.73-.59-.87-.62Z"/>
  <rect class="cls-1" x="54.73" y="12.69" width="1.01" height="4.04"/>
  <polygon class="cls-1" points="60.33 13.49 61.38 13.49 61.38 16.73 62.4 16.73 62.4 13.49 63.44 13.49 63.44 12.69 60.33 12.69 60.33 13.49"/>
  <polygon class="cls-1" points="69.68 14.06 68.81 12.69 67.66 12.69 69.17 14.85 69.17 16.73 70.17 16.73 70.17 14.82 71.69 12.69 70.54 12.69 69.68 14.06"/>
  <path class="cls-1" d="m72.81,16.17c-.28,0-.5.22-.5.49s.22.49.5.49.5-.22.5-.49-.22-.49-.5-.49Zm0,.87c-.22,0-.38-.17-.38-.39s.16-.39.38-.39.37.17.37.39-.16.38-.37.38Z"/>
  <path class="cls-1" d="m72.92,16.67h0c.06-.02.1-.07.1-.12,0-.05-.02-.09-.05-.11-.04-.02-.08-.03-.17-.03-.08,0-.14,0-.19.01v.49h.11v-.2h.05c.06,0,.09.02.1.08.02.06.02.1.04.12h.12s-.02-.05-.04-.12c-.01-.07-.04-.1-.09-.12Zm-.13-.04h-.05v-.14s.03,0,.06,0c.07,0,.1.03.1.07,0,.05-.05.07-.11.07Z"/>
</svg>