<?xml version="1.0" encoding="UTF-8"?>
<svg id="Layer_1" data-name="Layer 1" xmlns="http://www.w3.org/2000/svg" viewBox="0 0 106.11 54.13">
  <defs>
    <style>
      .cls-1 {
        fill: #4f2683;
        stroke-width: 0px;
      }
    </style>
  </defs>
  <rect class="cls-1" y="36.96" width=".71" height="5.52"/>
  <path class="cls-1" d="m3.91,38.42c-.66,0-1.11.37-1.31.75h-.02l-.04-.66h-.64c.02.33.03.66.03,1.07v2.89h.72v-2.38c0-.12.02-.25.05-.34.12-.4.49-.74.97-.74.68,0,.92.53.92,1.17v2.29h.72v-2.37c0-1.36-.85-1.69-1.4-1.69Z"/>
  <path class="cls-1" d="m7.76,40.18c-.52-.2-.75-.34-.75-.67,0-.29.24-.54.66-.54.37,0,.66.13.81.23l.18-.52c-.22-.13-.57-.25-.97-.25-.85,0-1.37.52-1.37,1.16,0,.48.34.87,1.05,1.12.53.2.74.39.74.73s-.25.59-.77.59c-.36,0-.74-.15-.95-.29l-.18.55c.28.16.68.27,1.11.27.94,0,1.48-.49,1.48-1.19,0-.59-.35-.93-1.04-1.2Z"/>
  <path class="cls-1" d="m11.59,42.46l-.03-.54c-.09.02-.23.05-.42.05-.4,0-.54-.28-.54-.77v-2.14h1.03v-.55h-1.03v-1.14l-.71.19v.95h-.61v.55h.61v2.16c0,.47.07.82.28,1.03.17.2.44.3.78.3.28,0,.5-.04.64-.1Z"/>
  <rect class="cls-1" x="12.45" y="38.51" width=".72" height="3.97"/>
  <path class="cls-1" d="m12.81,36.95c-.26,0-.45.2-.45.45s.18.44.43.44c.29,0,.47-.2.46-.44,0-.25-.17-.45-.44-.45Z"/>
  <path class="cls-1" d="m16.23,42.46l-.03-.54c-.09.02-.23.05-.42.05-.4,0-.54-.28-.54-.77v-2.14h1.03v-.55h-1.03v-1.14l-.71.19v.95h-.61v.55h.61v2.16c0,.47.07.82.28,1.03.17.2.44.3.78.3.28,0,.5-.04.64-.1Z"/>
  <path class="cls-1" d="m19.73,41.83h.02l.04.65h.64c-.02-.31-.03-.67-.03-1.08v-2.88h-.72v2.43c0,.13-.02.26-.07.37-.13.32-.47.66-.95.66-.66,0-.88-.51-.88-1.26v-2.2h-.72v2.32c0,1.39.75,1.74,1.37,1.74.7,0,1.12-.42,1.31-.74Z"/>
  <path class="cls-1" d="m22.47,37.37l-.71.19v.95h-.61v.55h.61v2.16c0,.47.07.82.28,1.03.17.2.44.3.78.3.28,0,.5-.04.64-.1l-.03-.54c-.09.02-.23.05-.42.05-.4,0-.54-.28-.54-.77v-2.14h1.03v-.55h-1.03v-1.14Z"/>
  <path class="cls-1" d="m27.29,42.31l-.12-.52c-.27.11-.58.21-1.1.21-.72,0-1.34-.4-1.36-1.38h2.79c0-.07.03-.19.03-.34,0-.73-.34-1.87-1.64-1.87-1.16,0-1.86.94-1.86,2.14s.73,2,1.95,2c.63,0,1.07-.13,1.32-.25Zm-1.47-3.38c.81,0,1.01.71,1,1.17h-2.11c.06-.5.38-1.17,1.11-1.17Z"/>
  <path class="cls-1" d="m30.95,42.48v-3.42h.96v-.55h-.96v-.21c0-.61.16-1.15.77-1.15.2,0,.35.04.46.09l.1-.56c-.14-.06-.36-.11-.61-.11-.34,0-.7.11-.97.37-.34.32-.46.83-.46,1.38v.19h-.56v.55h.56v3.42h.71Z"/>
  <path class="cls-1" d="m32.27,40.53c0,1.25.83,2.04,1.9,2.04.96,0,1.98-.64,1.98-2.11,0-1.21-.77-2.04-1.91-2.04s-1.97.78-1.97,2.11Zm3.14-.04c0,.89-.52,1.54-1.2,1.54s-1.2-.66-1.2-1.52c0-.75.37-1.54,1.22-1.54s1.19.85,1.19,1.52Z"/>
  <path class="cls-1" d="m37.71,39.29h-.03l-.02-.78h-.63c.02.37.03.77.03,1.24v2.73h.71v-2.11c0-.12.02-.24.03-.34.1-.54.46-.93.97-.93.1,0,.17,0,.25.02v-.68c-.07-.02-.12-.02-.21-.02-.48,0-.92.34-1.1.87Z"/>
  <path class="cls-1" d="m46.03,39.59c0-.89-.29-1.53-.78-1.98-.48-.45-1.21-.69-2.24-.69-.57,0-1.08.05-1.52.11v5.43c.36.04.79.07,1.29.07,1.07,0,1.93-.28,2.44-.79.52-.51.79-1.25.79-2.15Zm-3.1,2.37c-.28,0-.54,0-.72-.04v-4.36c.19-.04.47-.07.84-.07,1.51,0,2.25.83,2.24,2.13,0,1.49-.83,2.34-2.35,2.34Z"/>
  <path class="cls-1" d="m47.28,37.84c.29,0,.47-.2.46-.44,0-.25-.17-.45-.44-.45s-.45.2-.45.45.18.44.43.44Z"/>
  <rect class="cls-1" x="46.94" y="38.51" width=".72" height="3.97"/>
  <path class="cls-1" d="m50.25,43.63c-.49,0-.9-.15-1.16-.31l-.18.55c.32.21.84.33,1.32.33.5,0,1.06-.11,1.44-.48.38-.34.57-.9.57-1.81v-2.3c0-.48.02-.8.03-1.09h-.63l-.03.6h-.02c-.17-.33-.55-.69-1.24-.69-.91,0-1.79.76-1.79,2.11,0,1.1.7,1.93,1.69,1.93.62,0,1.04-.29,1.26-.66h.02v.44c0,1-.54,1.38-1.28,1.38Zm1.27-2.83c0,.12-.02.26-.06.39-.16.46-.56.74-1,.74-.78,0-1.17-.65-1.17-1.43,0-.92.49-1.5,1.18-1.5.52,0,.88.34,1.01.76.03.1.04.2.04.33v.71Z"/>
  <path class="cls-1" d="m53.8,36.95c-.26,0-.45.2-.45.45s.18.44.43.44c.29,0,.47-.2.46-.44,0-.25-.17-.45-.44-.45Z"/>
  <rect class="cls-1" x="53.44" y="38.51" width=".72" height="3.97"/>
  <path class="cls-1" d="m55.52,41.22c0,.47.07.82.28,1.03.17.2.44.3.78.3.28,0,.5-.04.64-.1l-.03-.54c-.09.02-.23.05-.42.05-.4,0-.54-.28-.54-.77v-2.14h1.03v-.55h-1.03v-1.14l-.71.19v.95h-.61v.55h.61v2.16Z"/>
  <path class="cls-1" d="m60.86,40.04c0-.79-.29-1.62-1.51-1.62-.5,0-.97.14-1.3.35l.16.48c.28-.18.66-.29,1.03-.29.81,0,.9.59.9.92v.08c-1.53,0-2.38.52-2.38,1.48,0,.57.41,1.14,1.21,1.14.57,0,.99-.28,1.21-.59h.02l.06.5h.66c-.05-.27-.07-.61-.07-.95v-1.48Zm-.7,1.1c0,.07-.02.16-.04.23-.11.34-.44.66-.96.66-.37,0-.68-.22-.68-.69,0-.77.89-.91,1.68-.89v.69Z"/>
  <rect class="cls-1" x="62.02" y="36.66" width=".72" height="5.82"/>
  <path class="cls-1" d="m69.16,42.48h.76l-1.88-5.52h-.86l-1.88,5.52h.74l.57-1.74h1.96l.59,1.74Zm-2.4-2.29l.54-1.6c.11-.34.2-.67.28-1h.02c.08.32.16.65.29,1.01l.54,1.59h-1.66Z"/>
  <path class="cls-1" d="m72.12,43.63c-.49,0-.9-.15-1.16-.31l-.18.55c.32.21.84.33,1.32.33.5,0,1.06-.11,1.44-.48.38-.34.57-.9.57-1.81v-2.3c0-.48.02-.8.03-1.09h-.63l-.03.6h-.02c-.17-.33-.55-.69-1.24-.69-.91,0-1.79.76-1.79,2.11,0,1.1.7,1.93,1.69,1.93.62,0,1.04-.29,1.26-.66h.02v.44c0,1-.54,1.38-1.28,1.38Zm1.27-2.83c0,.12-.02.26-.06.39-.16.46-.56.74-1,.74-.78,0-1.17-.65-1.17-1.43,0-.92.49-1.5,1.18-1.5.52,0,.88.34,1.01.76.03.1.04.2.04.33v.71Z"/>
  <path class="cls-1" d="m77.26,38.45c-.07-.02-.12-.02-.21-.02-.48,0-.92.34-1.1.87h-.03l-.02-.78h-.63c.02.37.03.77.03,1.24v2.73h.71v-2.11c0-.12.02-.24.03-.34.1-.54.46-.93.97-.93.1,0,.17,0,.25.02v-.68Z"/>
  <rect class="cls-1" x="77.98" y="38.51" width=".72" height="3.97"/>
  <path class="cls-1" d="m78.34,36.95c-.26,0-.45.2-.45.45s.18.44.43.44c.29,0,.47-.2.46-.44,0-.25-.17-.45-.44-.45Z"/>
  <path class="cls-1" d="m81.74,39c.39,0,.66.09.84.19l.16-.56c-.2-.1-.57-.21-1-.21-1.29,0-2.13.88-2.13,2.11s.78,2.02,1.97,2.02c.53,0,.95-.13,1.14-.23l-.12-.54c-.2.09-.47.2-.88.2-.79,0-1.38-.57-1.38-1.48,0-.83.49-1.5,1.4-1.5Z"/>
  <path class="cls-1" d="m86.23,41.83h.02l.04.65h.64c-.02-.31-.03-.67-.03-1.08v-2.88h-.72v2.43c0,.13-.02.26-.07.37-.13.32-.47.66-.95.66-.66,0-.88-.51-.88-1.26v-2.2h-.72v2.32c0,1.39.75,1.74,1.37,1.74.7,0,1.12-.42,1.31-.74Z"/>
  <rect class="cls-1" x="88.09" y="36.66" width=".72" height="5.82"/>
  <path class="cls-1" d="m91.93,39.06v-.55h-1.03v-1.14l-.71.19v.95h-.61v.55h.61v2.16c0,.47.07.82.28,1.03.17.2.44.3.78.3.28,0,.5-.04.64-.1l-.03-.54c-.09.02-.23.05-.42.05-.4,0-.54-.28-.54-.77v-2.14h1.03Z"/>
  <path class="cls-1" d="m96.06,38.51h-.72v2.43c0,.13-.02.26-.07.37-.13.32-.47.66-.95.66-.66,0-.88-.51-.88-1.26v-2.2h-.72v2.32c0,1.39.75,1.74,1.37,1.74.7,0,1.12-.42,1.31-.74h.02l.04.65h.64c-.02-.31-.03-.67-.03-1.08v-2.88Z"/>
  <path class="cls-1" d="m97.91,39.29h-.03l-.02-.78h-.63c.02.37.03.77.03,1.24v2.73h.71v-2.11c0-.12.02-.24.03-.34.1-.54.46-.93.97-.93.1,0,.17,0,.25.02v-.68c-.07-.02-.12-.02-.21-.02-.48,0-.92.34-1.1.87Z"/>
  <path class="cls-1" d="m101.51,38.42c-1.16,0-1.86.94-1.86,2.14s.73,2,1.95,2c.63,0,1.07-.13,1.32-.25l-.12-.52c-.27.11-.58.21-1.1.21-.72,0-1.34-.4-1.36-1.38h2.79c0-.07.03-.19.03-.34,0-.73-.34-1.87-1.64-1.87Zm-1.16,1.69c.06-.5.38-1.17,1.11-1.17.81,0,1.01.71,1,1.17h-2.11Z"/>
  <path class="cls-1" d="m13.81,49.88c0-.79-.29-1.62-1.51-1.62-.5,0-.97.14-1.3.35l.16.48c.28-.18.66-.29,1.03-.29.81,0,.9.59.9.92v.08c-1.53,0-2.38.52-2.38,1.48,0,.57.41,1.14,1.21,1.14.57,0,.99-.28,1.21-.59h.02l.06.5h.66c-.05-.27-.07-.61-.07-.95v-1.48Zm-.7,1.1c0,.07-.02.16-.04.23-.11.34-.44.66-.96.66-.37,0-.68-.22-.68-.69,0-.77.89-.91,1.68-.89v.69Z"/>
  <path class="cls-1" d="m16.95,48.26c-.66,0-1.11.37-1.31.75h-.02l-.04-.66h-.64c.02.33.03.66.03,1.07v2.89h.72v-2.38c0-.12.02-.25.05-.34.12-.4.49-.74.97-.74.68,0,.92.53.92,1.17v2.29h.72v-2.37c0-1.36-.85-1.69-1.4-1.69Z"/>
  <path class="cls-1" d="m22.95,46.5h-.72v2.37h-.02c-.18-.32-.59-.61-1.2-.61-.97,0-1.79.81-1.78,2.13,0,1.2.74,2.02,1.7,2.02.65,0,1.13-.34,1.35-.78h.02l.03.69h.65c-.02-.27-.03-.67-.03-1.02v-4.79Zm-.72,4.15c0,.11,0,.21-.03.31-.13.54-.57.86-1.06.86-.78,0-1.17-.66-1.17-1.47,0-.88.44-1.53,1.19-1.53.54,0,.93.38,1.04.84.02.09.03.21.03.3v.69Z"/>
  <path class="cls-1" d="m27.37,46.79l-1.88,5.52h.74l.57-1.74h1.96l.59,1.74h.76l-1.88-5.52h-.86Zm-.42,3.23l.54-1.6c.11-.34.2-.67.28-1h.02c.08.32.16.65.29,1.01l.54,1.59h-1.66Z"/>
  <path class="cls-1" d="m34.33,46.5h-.72v2.37h-.02c-.18-.32-.59-.61-1.2-.61-.97,0-1.79.81-1.78,2.13,0,1.2.74,2.02,1.7,2.02.65,0,1.13-.34,1.35-.78h.02l.03.69h.65c-.02-.27-.03-.67-.03-1.02v-4.79Zm-.72,4.15c0,.11,0,.21-.03.31-.13.54-.57.86-1.06.86-.78,0-1.17-.66-1.17-1.47,0-.88.44-1.53,1.19-1.53.54,0,.93.38,1.04.84.02.09.03.21.03.3v.69Z"/>
  <path class="cls-1" d="m37.27,50.58c-.13.36-.25.69-.34,1.02h-.02c-.08-.33-.19-.66-.32-1.02l-.78-2.23h-.77l1.51,3.97h.69l1.56-3.97h-.75l-.77,2.23Z"/>
  <path class="cls-1" d="m42.26,49.88c0-.79-.29-1.62-1.51-1.62-.5,0-.97.14-1.3.35l.16.48c.28-.18.66-.29,1.03-.29.81,0,.9.59.9.92v.08c-1.53,0-2.38.52-2.38,1.48,0,.57.41,1.14,1.21,1.14.57,0,.99-.28,1.21-.59h.02l.06.5h.66c-.05-.27-.07-.61-.07-.95v-1.48Zm-.7,1.1c0,.07-.02.16-.04.23-.11.34-.44.66-.96.66-.37,0-.68-.22-.68-.69,0-.77.89-.91,1.68-.89v.69Z"/>
  <path class="cls-1" d="m45.41,48.26c-.66,0-1.11.37-1.31.75h-.02l-.04-.66h-.64c.02.33.03.66.03,1.07v2.89h.72v-2.38c0-.12.02-.25.05-.34.12-.4.49-.74.97-.74.68,0,.92.53.92,1.17v2.29h.72v-2.37c0-1.36-.85-1.69-1.4-1.69Z"/>
  <path class="cls-1" d="m49.82,48.84c.39,0,.66.09.84.19l.16-.56c-.2-.1-.57-.21-1-.21-1.29,0-2.13.88-2.13,2.11s.78,2.02,1.97,2.02c.53,0,.95-.13,1.14-.23l-.12-.54c-.2.09-.47.2-.88.2-.79,0-1.38-.57-1.38-1.48,0-.83.49-1.5,1.4-1.5Z"/>
  <path class="cls-1" d="m53.23,48.26c-1.16,0-1.86.94-1.86,2.14s.73,2,1.95,2c.63,0,1.07-.13,1.32-.25l-.12-.52c-.27.11-.58.21-1.1.21-.72,0-1.34-.4-1.36-1.38h2.79c0-.07.03-.19.03-.34,0-.73-.34-1.87-1.64-1.87Zm-1.16,1.69c.06-.5.38-1.17,1.11-1.17.81,0,1.01.71,1,1.17h-2.11Z"/>
  <path class="cls-1" d="m59.19,46.5h-.72v2.37h-.02c-.18-.32-.59-.61-1.2-.61-.97,0-1.79.81-1.78,2.13,0,1.2.74,2.02,1.7,2.02.65,0,1.13-.34,1.35-.78h.02l.03.69h.65c-.02-.27-.03-.67-.03-1.02v-4.79Zm-.72,4.15c0,.11,0,.21-.03.31-.13.54-.57.86-1.06.86-.78,0-1.17-.66-1.17-1.47,0-.88.44-1.53,1.19-1.53.54,0,.93.38,1.04.84.02.09.03.21.03.3v.69Z"/>
  <path class="cls-1" d="m63.61,46.79l-1.88,5.52h.74l.57-1.74h1.96l.59,1.74h.76l-1.88-5.52h-.86Zm-.42,3.23l.54-1.6c.11-.34.2-.67.28-1h.02c.08.32.16.65.29,1.01l.54,1.59h-1.66Z"/>
  <path class="cls-1" d="m69.12,48.26c-.66,0-1.11.37-1.31.75h-.02l-.04-.66h-.64c.02.33.03.66.03,1.07v2.89h.72v-2.38c0-.12.02-.25.05-.34.12-.4.49-.74.97-.74.68,0,.92.53.92,1.17v2.29h.72v-2.37c0-1.36-.85-1.69-1.4-1.69Z"/>
  <path class="cls-1" d="m74.48,49.88c0-.79-.29-1.62-1.51-1.62-.5,0-.97.14-1.3.35l.16.48c.28-.18.66-.29,1.03-.29.81,0,.9.59.9.92v.08c-1.53,0-2.38.52-2.38,1.48,0,.57.41,1.14,1.21,1.14.57,0,.99-.28,1.21-.59h.02l.06.5h.66c-.05-.27-.07-.61-.07-.95v-1.48Zm-.7,1.1c0,.07-.02.16-.04.23-.11.34-.44.66-.96.66-.37,0-.68-.22-.68-.69,0-.77.89-.91,1.68-.89v.69Z"/>
  <rect class="cls-1" x="75.65" y="46.5" width=".72" height="5.82"/>
  <path class="cls-1" d="m79.24,50.68c-.1.29-.18.59-.25.83h-.02c-.07-.24-.16-.55-.25-.81l-.87-2.34h-.79l1.47,3.65c.03.09.05.15.05.19s-.02.1-.06.17c-.16.37-.41.65-.61.8-.21.18-.45.29-.63.35l.18.61c.18-.03.53-.16.88-.47.49-.43.84-1.12,1.36-2.48l1.08-2.83h-.76l-.79,2.33Z"/>
  <path class="cls-1" d="m82.31,47.21l-.71.19v.95h-.61v.55h.61v2.16c0,.47.07.82.28,1.03.17.2.44.3.78.3.28,0,.5-.04.64-.1l-.03-.54c-.09.02-.23.05-.42.05-.4,0-.54-.28-.54-.77v-2.14h1.03v-.55h-1.03v-1.14Z"/>
  <rect class="cls-1" x="84.16" y="48.35" width=".72" height="3.97"/>
  <path class="cls-1" d="m84.52,46.79c-.26,0-.45.2-.45.45s.18.44.43.44c.29,0,.47-.2.46-.44,0-.25-.17-.45-.44-.45Z"/>
  <path class="cls-1" d="m87.92,48.84c.39,0,.66.09.84.19l.16-.56c-.2-.1-.57-.21-1-.21-1.29,0-2.13.88-2.13,2.11s.78,2.02,1.97,2.02c.53,0,.95-.13,1.14-.23l-.12-.54c-.2.09-.47.2-.88.2-.79,0-1.38-.57-1.38-1.48,0-.83.49-1.5,1.4-1.5Z"/>
  <path class="cls-1" d="m91.03,50.02c-.52-.2-.75-.34-.75-.67,0-.29.24-.54.66-.54.37,0,.66.13.81.23l.18-.52c-.22-.13-.57-.25-.97-.25-.85,0-1.37.52-1.37,1.16,0,.48.34.87,1.05,1.12.53.2.74.39.74.73s-.25.59-.77.59c-.36,0-.74-.15-.95-.29l-.18.55c.28.16.68.27,1.11.27.94,0,1.48-.49,1.48-1.19,0-.59-.35-.93-1.04-1.2Z"/>
  <rect class="cls-1" x=".11" y="14.96" width="102.82" height=".58"/>
  <path class="cls-1" d="m68.05,10.95c-.2.12-.44.2-.72.26-.3.05-.63.08-1,.08-.4,0-.82-.09-1.24-.28-.43-.19-.83-.44-1.2-.75-.37-.32-.7-.68-.98-1.08-.27-.39-.47-.8-.59-1.2l-.06-.19h-.92l.82,4.66.33-.17s.06-.03.14-.05c.08-.02.16-.05.25-.07.08-.02.16-.04.24-.06.07-.02.11-.02.12-.02.27,0,.55.03.83.08.29.05.58.11.85.17.3.07.59.13.88.18.3.05.62.08.92.08.65,0,1.25-.08,1.79-.25.54-.17,1.01-.41,1.4-.71.39-.31.7-.69.91-1.13.22-.44.32-.94.32-1.48,0-.76-.18-1.41-.55-1.94-.35-.5-.79-.94-1.32-1.3-.51-.35-1.07-.66-1.66-.91-.58-.24-1.12-.49-1.61-.72-.48-.23-.87-.48-1.19-.76-.28-.24-.41-.52-.41-.86,0-.46.14-.79.44-1.02.32-.24.71-.36,1.18-.36.38,0,.77.08,1.14.23.38.15.74.36,1.06.62.32.26.61.57.86.92.24.35.42.72.53,1.12l.05.2h.86l-.08-3.74h-.9c-.2,0-.42-.03-.66-.07-.25-.05-.53-.11-.81-.18-.29-.07-.61-.13-.95-.19-.34-.05-.69-.08-1.06-.08-1.41,0-2.48.27-3.19.8-.73.55-1.1,1.42-1.1,2.6,0,.69.19,1.28.56,1.76.36.45.81.85,1.34,1.18.52.32,1.08.61,1.68.86.58.24,1.12.49,1.62.75.48.25.89.53,1.2.83.28.27.42.6.42,1,0,.3-.05.55-.15.74-.1.18-.24.33-.42.44Z"/>
  <path class="cls-1" d="m6.23,11.39s-.1,0-.15-.01h-.1c-.16-.01-.27-.03-.36-.04h0c-.19-.03-.41-.09-.6-.21-.07-.04-.14-.09-.18-.15-.02-.03-.04-.05-.06-.08,0,0,0,0,0,0h0s0,0,0-.01c-.01-.02-.02-.04-.03-.07-.04-.07-.06-.16-.08-.25-.02-.11-.03-.24-.04-.37-.02-.29-.01-.55-.01-.55v-2.5h.02s.83-.65.83-.65c.33.44.75,1.02,1.15,1.61.12.18.25.36.38.54.25.37.48.71.69,1.03.19.29.34.54.47.76.11.18.32.48.14.69-.19.23-1,.31-1.18.31h0v.9h6.09v-.79c-.98-.13-1.47-.81-1.98-1.52-.1-.13-.2-.26-.3-.41l-.96-1.38s0,0,0,0l-2.4-3.44h0c.09-.08.19-.16.28-.24.3-.26.58-.52.86-.77.26-.24.51-.47.73-.66.02-.02.05-.04.08-.07.21-.18.62-.53,1.33-1l.1-.07c.37-.25.67-.44,1.07-.58.03-.01.06-.02.1-.03h.03s.03-.02.04-.02c.05-.01.16-.03.4-.05v-.13s-.01-.94-.01-.94h-5.39v1.08h.07s.15.02.29.05c.01,0,.02,0,.03,0l.07.02s.04.01.07.02c0,0,.01,0,.02,0,0,0,.02,0,.03.01.03.01.06.02.09.04h.02s.09.05.13.08c0,0,0,0,0,0h.02s.13.12.01.39c-.02.06-.07.16-.18.31-.09.13-.21.28-.35.44-.27.33-.58.65-.83.89l-.09.09c-.09.09-.18.17-.27.25-.35.32-.66.61-.95.87-.26.24-.51.46-.73.65-.02.01-.03.02-.04.03v-2.73c0-.25,0-.77.35-1.15.34-.38.89-.42,1.15-.42h.16V.24H.11v.98h.32c.38,0,.73.17.96.43,0,0,0,0,0,0,.02.02.04.04.05.06,0,0,0,.01.01.01.01.02.03.04.04.06.12.18.19.38.21.61,0,.03,0,.07,0,.1,0,.39,0,.84,0,1.21s0,3.86,0,4.39c0,.48.03,1.87-.01,2.31,0,0,0,.01,0,.01,0,.04,0,.07-.01.09-.01.06-.03.12-.05.17-.09.26-.3.47-.52.57-.05.02-.11.04-.18.06,0,0,0,0,0,0-.09.03-.23.04-.37.05-.09,0-.16.01-.2.01h-.09c-.1,0-.16,0-.16,0v.95h6.12v-.95Z"/>
  <path class="cls-1" d="m16.91,11.48s-.38-.01-.72-.22c-.25-.16-.08-.55-.05-.6,0,0,0-.02.01-.03l.44-1.19h2.41l.3.84v.03s.09.19.14.35c0,.02.02.05.02.07,0,0,0,0,0,.01.01.03.02.07.03.1.03.11.03.18.03.21s0,.06-.02.09c0,.02-.02.03-.03.05-.06.08-.16.13-.28.17-.02,0-.04.01-.07.02-.29.08-.61.07-.61.07v.87h4.38s0-.89,0-.89h-.07c-.2,0-.41-.05-.61-.15-.18-.09-.29-.21-.36-.4l-2.74-7.45-2.07.61.3.79-2.23,5.21s-.14.38-.32.73c0,0,0,.02-.01.02-.03.07-.07.13-.11.19-.05.08-.1.15-.16.22-.05.05-.1.09-.15.12,0,0-.02,0-.02.01-.1.06-.2.1-.32.12-.05.01-.1.02-.14.02h-.11v.87h3.17v-.86Zm.91-5.38l.81,2.28h-1.65l.84-2.28Z"/>
  <path class="cls-1" d="m40.5,12.33h3.17v-.86s-.38-.01-.72-.22c-.25-.16-.08-.55-.05-.6,0,0,0-.02.01-.03l.44-1.19h2.41l.3.84v.03s.09.19.14.35c0,.02.01.05.02.07,0,0,0,0,0,.01,0,.03.02.07.03.1.03.11.03.18.03.21s0,.06-.02.09c0,.02-.02.03-.03.05-.06.08-.17.13-.28.17-.02,0-.04.01-.07.02-.29.08-.61.07-.61.07v.87h4.38s0-.89,0-.89h-.07c-.2,0-.41-.05-.61-.15-.18-.09-.29-.21-.36-.4l-2.74-7.45-2.07.61.29.79-2.23,5.21s-.14.38-.32.73c0,0,0,.02-.01.02-.03.07-.07.13-.11.19-.04.08-.1.15-.17.22-.05.05-.1.09-.15.12,0,0-.02,0-.02.01-.1.06-.2.1-.32.12-.05.01-.1.02-.14.02h-.11v.87Zm4.08-6.23l.81,2.28h-1.65l.84-2.28Z"/>
  <path class="cls-1" d="m27.33,11.48c-.07-.01-.14-.02-.22-.03h-.03c-.09-.02-.15-.03-.21-.05-.12-.03-.25-.07-.36-.12-.25-.11-.43-.17-.49-.68,0-.02,0-.05,0-.07,0-.03,0-.06,0-.09,0-.03,0-.05,0-.09,0-.01,0-.02,0-.03,0-.02,0-.04,0-.07,0-.02,0-.03,0-.05,0-.02,0-.04,0-.07,0-.02,0-.03,0-.05,0-.03,0-.05,0-.08v-.04s0-.07,0-.1c0,0,0-.02,0-.03,0-.04,0-.08,0-.12h0c0-.11,0-.21,0-.32-.01-1.23,0-2.95,0-3.04h0s0,0,0,0c0,.01.02.02.03.03.96,1.14,2.41,3.01,2.41,3.01.85,1.06,1.73,2.16,2.38,2.99l.05.06h1.16v-5.84c0-.21,0-.39.01-.56,0-.09,0-.18.01-.27,0,0,0-.01,0-.02,0,0,0-.01,0-.02v-.02c0-.06.01-.13.02-.18,0-.08.02-.15.03-.21,0-.03.01-.06.02-.09,0-.04.02-.08.03-.11,0,0,0,0,0,0,0,0,0,0,0-.01.08-.22.26-.39.49-.45,0,0,0,0,.01,0,0,0,0,0,0,0,.02,0,.04,0,.06,0,.02,0,.03,0,.05,0,0,0,0,0,0,0,0,0,0,0,0,0,.02,0,.03,0,.05,0,.14-.01.3-.02.35-.02v-.88h-3.52v.85c.27.04.78.11.95.29.17.19.24.47.31,1.35h0c.04.41.06.93.07,1.41,0,.03,0,.06,0,.09.01.42.02.83.02,1.22v.13h0c-.59-.73-1.66-2.02-2.63-3.17-.74-.89-1.38-1.66-1.69-2.04l-.09-.12h-3.12s0,.82,0,.82c.72.18,1.11.4,1.45.68,0,0,0,.81-.01,1.27v.46c-.01.64-.02,1.82-.03,2.5,0,.04,0,.08,0,.12,0,.08,0,.15,0,.21,0,0,0,0,0,0v.05c0,.1,0,.2,0,.28,0,.21-.01.39-.04.54,0,0,0,0,0,0,0,0,0,0,0,0,0,.03-.01.06-.02.09,0,0,0,.02,0,.02-.04.15-.11.27-.23.36-.31.25-.8.26-1.12.31v.85h3.88s0-.85,0-.85Z"/>
  <path class="cls-1" d="m38.19,11.17c-.13.08-.28.13-.47.17-.2.04-.43.06-.68.06-.27,0-.54-.06-.82-.18-.29-.13-.56-.3-.81-.51-.25-.21-.47-.46-.66-.73-.18-.26-.32-.53-.4-.8l-.06-.21h-.85l.62,3.52.36-.18s.03-.01.08-.03c.06-.02.11-.03.17-.05.06-.02.11-.03.16-.04.04-.01.06-.01.06-.01.18,0,.37.02.56.05.2.04.4.08.59.12.2.04.41.09.62.12.22.04.44.06.66.06.47,0,.9-.06,1.28-.18.39-.12.73-.29,1.01-.51.29-.23.51-.51.67-.83.16-.32.24-.69.24-1.08,0-.55-.13-1.03-.4-1.41-.25-.36-.57-.67-.95-.93-.36-.25-.76-.47-1.18-.64-.4-.17-.78-.34-1.12-.5-.32-.15-.59-.33-.8-.51-.17-.15-.24-.31-.24-.52,0-.29.08-.49.26-.62.2-.15.46-.23.75-.23.25,0,.5.05.75.15.26.1.49.24.71.42.22.18.41.39.58.62.16.23.28.48.35.75l.06.22h.79l-.06-2.82h-.74c-.13,0-.28-.01-.44-.05-.18-.04-.37-.08-.56-.13-.21-.05-.43-.1-.67-.13-.24-.04-.5-.06-.75-.06-1,0-1.77.19-2.29.58-.54.4-.81,1.04-.81,1.9,0,.51.14.94.42,1.29.26.33.58.61.96.85.36.23.76.43,1.19.6.4.17.78.34,1.12.52.33.17.6.36.81.56.18.17.26.36.26.62,0,.19-.03.35-.09.46-.06.11-.14.2-.25.26Z"/>
  <path class="cls-1" d="m50.48,12.48l.36-.18s.03-.01.08-.03c.06-.02.11-.03.17-.05.06-.02.11-.03.16-.04.02,0,.02,0,.03,0,0,0,.03,0,.03,0,.09,0,.19.02.28.02.09,0,.19,0,.28.03.2.04.4.08.59.12.2.04.41.09.62.12.22.04.44.06.66.06.47,0,.9-.06,1.28-.18.39-.12.73-.29,1.01-.51.29-.23.51-.51.67-.83.16-.32.24-.69.24-1.08h0c0-.56-.14-1.03-.4-1.41-.25-.36-.57-.67-.95-.93-.26-.17-.53-.33-.81-.47-.12-.06-.24-.12-.37-.18-.21-.09-.39-.18-.59-.26-.17-.08-.36-.16-.52-.24-.32-.16-.59-.33-.8-.51-.08-.07-.15-.15-.19-.24-.04-.09-.06-.18-.06-.28,0-.08.02-.14.04-.21.04-.17.1-.31.23-.41.2-.15.46-.23.75-.23.25,0,.51.05.75.15.25.1.49.24.71.42.22.18.41.39.58.62.16.23.28.48.35.74l.06.22h.79s-.03-1.33-.03-1.33l-.03-1.5h-.74c-.07,0-.15-.02-.23-.03-.07,0-.13,0-.21-.02-.09-.02-.19-.04-.28-.06-.09-.02-.18-.04-.28-.06-.21-.05-.43-.1-.67-.13-.06,0-.12,0-.18-.01-.19-.02-.37-.05-.57-.05-1,0-1.77.2-2.28.58-.54.4-.81,1.04-.81,1.9h0c0,.51.14.94.42,1.29.26.33.58.61.96.85.17.11.37.19.56.28.21.11.4.23.63.32.21.09.4.18.59.28.18.08.37.16.53.25.33.17.6.36.81.56.18.17.26.36.26.62,0,.19-.03.35-.09.46-.06.11-.14.2-.25.26-.13.08-.28.13-.47.16-.2.04-.43.06-.68.06-.27,0-.54-.06-.82-.18-.29-.13-.56-.3-.81-.51-.25-.21-.47-.46-.66-.73-.18-.27-.32-.54-.4-.8l-.06-.21h-.85,0s0,0,0,0l.62,3.52Z"/>
  <path class="cls-1" d="m88.04,6.59c.08-.42.19-.75.33-.99.12-.22.28-.39.45-.5.18-.11.4-.19.64-.22.19-.03.31-.04.54-.05v5.52c0,.26-.01.47-.03.63-.02.12-.05.21-.1.27-.05.06-.14.1-.25.14-.16.04-.39.08-.68.1l-.3.02v.82h4.91v-.82l-.3-.02c-.29-.02-.52-.06-.68-.1-.12-.03-.21-.08-.25-.13-.05-.06-.09-.15-.1-.27-.02-.16-.03-.37-.03-.63v-5.52c.23,0,.36.03.55.05.24.03.46.11.64.22.18.11.33.28.45.5.13.23.24.57.33.99l.05.24h.83l-.15-3.14h-7.61l-.15,3.14h.88l.05-.24Z"/>
  <path class="cls-1" d="m79.34,11.33c-.1.06-.2.1-.32.12-.05.01-.1.02-.14.02h-.11v.87h3.17v-.86s-.38-.01-.71-.22c-.25-.16-.08-.55-.05-.6,0,0,0-.02.01-.03l.44-1.19h2.41l.3.84v.03s.09.19.14.35c0,.02.02.05.02.07,0,0,0,0,0,.01.01.03.02.07.03.1.03.11.03.17.03.21s0,.06-.02.09c0,.02-.02.03-.03.05-.06.08-.17.13-.28.17-.02,0-.04.01-.07.02-.29.08-.61.07-.61.07v.87h4.38s0-.89,0-.89h-.07c-.21,0-.41-.05-.61-.15-.18-.09-.29-.21-.36-.4l-2.74-7.45-2.07.61.29.79-2.23,5.21s-.14.38-.32.72c0,0,0,.02-.01.02-.03.07-.07.13-.11.19-.04.08-.1.15-.16.22-.05.05-.1.09-.15.12,0,0-.02,0-.03.01Zm3.51-5.22l.81,2.28h-1.65l.84-2.28Z"/>
  <path class="cls-1" d="m72.48,6.6c.08-.42.19-.76.33-.99.12-.22.28-.39.45-.5.18-.11.4-.19.64-.22.19-.03.31-.04.54-.05v5.52c0,.26-.01.47-.03.63-.02.12-.05.21-.1.27-.05.06-.14.1-.25.14-.16.04-.39.08-.68.1l-.3.02v.82h4.91v-.82l-.3-.02c-.29-.02-.52-.06-.68-.1-.12-.03-.2-.08-.25-.14-.05-.06-.09-.15-.1-.27-.02-.16-.03-.37-.03-.64v-5.52c.23,0,.35.03.54.05.24.03.46.11.64.22.18.11.33.28.46.5.13.23.24.57.33.99l.05.24h.83l-.15-3.14h-7.61l-.15,3.14h.88l.05-.24Z"/>
  <path class="cls-1" d="m102.86,9.18c-.13.36-.53,1.22-1.08,1.54-.65.38-1.43.68-2.97.5v-2.81h.25c.79,0,1.45.6,1.55,1.37h.79v-3.61s-.8,0-.8,0c-.12.63-.61,1.13-1.24,1.25-.03,0-.08.02-.16.03-.02,0-.03,0-.05,0,0,0,0,0-.02,0-.07,0-.14.01-.21.01h-.11v-2.71h.91c.24,0,1.06-.03,1.62.35.64.43.83,1.22.89,1.55l.8-.15-.12-2.82h-7.6s0,.93,0,.93h.29c.24.01.44.04.57.09.11.04.2.1.25.17.06.07.1.17.12.29.03.16.04.34.04.55v4.63c0,.23-.01.42-.04.57-.02.12-.06.21-.11.28-.05.06-.13.11-.24.15-.14.04-.34.08-.59.09l-.28.02v.88h7.6s.65-2.68.65-2.68l-.71-.49h0Z"/>
  <path class="cls-1" d="m5.01,22.73c.14-.4.16-.82.16-1.25v-3.24h-1.45v3.61c0,.33,0,.67-.28.91-.21.18-.44.21-.71.21-.1,0-.49,0-.77-.22-.23-.18-.27-.38-.27-.9v-3.61H.21v3.24c0,.72.02,1.44.58,2,.66.66,1.63.7,1.88.7.33,0,1.86-.09,2.34-1.45Z"/>
  <polygon class="cls-1" points="17.07 24.04 17.07 18.24 15.68 18.24 15.74 21.88 13.62 18.24 12.2 18.24 12.2 24.04 13.6 24.04 13.55 20.45 15.65 24.04 17.07 24.04"/>
  <rect class="cls-1" x="24.15" y="18.24" width="1.45" height="5.8"/>
  <polygon class="cls-1" points="36.05 18.24 34.86 22.36 33.66 18.24 32.12 18.24 34.11 24.04 35.58 24.04 37.6 18.24 36.05 18.24"/>
  <polygon class="cls-1" points="48.41 19.36 48.41 18.24 44.12 18.24 44.12 24.04 48.67 24.04 48.67 22.9 45.57 22.9 45.57 21.52 48.22 21.52 48.22 20.42 45.57 20.42 45.57 19.36 48.41 19.36"/>
  <path class="cls-1" d="m59.9,21.3c.2-.19.45-.53.45-1.18,0-.48-.15-.81-.23-.97-.45-.83-1.37-.89-1.64-.9-.16,0-.33,0-.49,0h-2.61v5.8h1.46v-2.07h.9l1.16,2.07h1.59l-1.34-2.32c.24-.09.36-.15.47-.21.09-.06.19-.13.27-.21Zm-1.48-.47c-.16.06-.33.06-.39.06h-1.2v-1.58h1.23c.26,0,.84.02.84.77,0,.15-.02.59-.48.75Z"/>
  <path class="cls-1" d="m69.9,22.97c-.19.06-.39.06-.45.06-.48,0-1.04-.17-1.42-.48-.11-.09-.23-.22-.25-.25l-1.1.69c.23.27.3.35.46.48.39.31,1.03.7,2.18.7.2,0,.39-.02.58-.04.28-.03,1.32-.16,1.82-1.07.21-.39.23-.74.23-.9,0-.29-.07-.52-.11-.62-.3-.71-1.04-.85-1.25-.89-.32-.07-.64-.14-.97-.19-.54-.08-.86-.07-1.06-.29-.04-.04-.12-.15-.12-.3,0-.27.27-.62.86-.62.25,0,.47.07.54.08.43.14.66.32.98.63l1.07-.77c-.33-.29-.44-.39-.64-.52-.79-.53-1.56-.58-1.91-.58-.95,0-1.52.34-1.81.61-.28.26-.44.56-.5.93-.02.16-.03.35-.03.4,0,.24.05.43.07.51.07.21.19.36.25.43.29.34.67.5,1.09.61.27.07.55.12.82.15.52.07,1.29.09,1.29.62,0,.44-.58.61-.62.62Z"/>
  <rect class="cls-1" x="78.76" y="18.24" width="1.45" height="5.8"/>
  <polygon class="cls-1" points="89.77 19.38 91.27 19.38 91.27 18.24 86.8 18.24 86.8 19.38 88.31 19.38 88.31 24.04 89.77 24.04 89.77 19.38"/>
  <polygon class="cls-1" points="100.94 24.04 100.94 21.3 103.13 18.24 101.48 18.24 100.24 20.2 98.99 18.24 97.33 18.24 99.51 21.34 99.51 24.04 100.94 24.04"/>
  <path class="cls-1" d="m105.96,23.1c-.1-.17-.23-.3-.4-.39-.17-.09-.35-.14-.53-.14s-.36.05-.53.14c-.17.09-.3.22-.4.39-.1.17-.14.35-.14.54s.05.36.14.53c.09.17.23.3.4.4s.35.14.53.14.36-.05.53-.14.3-.23.4-.4c.09-.17.14-.35.14-.53s-.05-.36-.14-.54Zm-.15.98c-.08.14-.19.25-.33.33-.14.08-.29.12-.44.12s-.3-.04-.44-.12c-.14-.08-.25-.19-.33-.33-.08-.14-.12-.29-.12-.44s.04-.3.12-.45c.08-.14.19-.25.33-.33.14-.08.29-.11.44-.11s.29.04.44.11c.14.08.25.19.33.33.08.14.12.29.12.45s-.04.3-.12.44Z"/>
  <path class="cls-1" d="m105.22,23.78s-.06-.04-.1-.06c.1,0,.18-.04.24-.11.06-.06.09-.14.09-.22,0-.06-.02-.12-.05-.17-.03-.05-.08-.09-.14-.11-.06-.02-.16-.03-.29-.03h-.39v1.15h.19v-.49h.11c.07,0,.11.01.15.04.05.04.11.12.19.27l.1.18h.23l-.14-.23c-.07-.11-.12-.18-.17-.23Zm-.24-.2h-.22v-.35h.21c.09,0,.15,0,.19.02.03.01.06.03.08.06.02.03.03.06.03.09,0,.05-.02.1-.06.13s-.11.05-.22.05Z"/>
</svg>